# xmcd CD database file
#
# Track frame offsets:
#	182
#	22820
#	53617
#	69742
#	84220
#	98420
#	112355
#	121802
#	136915
#	154165
#	164962
#	180847
#	195262
#	216195
#	228367
#	245132
#
# Disc length: 3487 seconds
#
# Revision: 3
# Processed by: cddbd v1.5.2PL0 Copyright (c) Steve Scherf et al.
# Submitted via: CDex 1.79
#
DISCID=cf0d9d10
DTITLE=Lex Vandyke - Still Got The Blues Vol. 1
DYEAR=1993
DGENRE=Instrumental
TTITLE0=Still Got The Blues
TTITLE1=Tunnel Of Love
TTITLE2=I Shot The Sheriff
TTITLE3=Samba Pa Ti
TTITLE4=Smoking Gun
TTITLE5=Oh Well
TTITLE6=How Can We Hang On To A Dream
TTITLE7=White Room
TTITLE8=Water Of Love
TTITLE9=Confidence Man
TTITLE10=Knocking On Heaven's Door
TTITLE11=Sunshine Of Your Love
TTITLE12=The Healer
TTITLE13=Jin-Go-Lo-Ba
TTITLE14=Lay Down Sally
TTITLE15=I Need Your Love So Bad
EXTD=YEAR: 1993
EXTT0=
EXTT1=
EXTT2=
EXTT3=
EXTT4=
EXTT5=
EXTT6=
EXTT7=
EXTT8=
EXTT9=
EXTT10=
EXTT11=
EXTT12=
EXTT13=
EXTT14=
EXTT15=
PLAYORDER=
